<svg xmlns="http://www.w3.org/2000/svg" width="840" height="183" viewBox="0 0 840 183"><metadata><rdf:RDF xmlns:rdf="http://www.w3.org/1999/02/22-rdf-syntax-ns#" xmlns:dc="http://purl.org/dc/elements/1.1/"><rdf:Description><dc:creator>RealFaviconGenerator</dc:creator><dc:source>https://realfavicongenerator.net</dc:source></rdf:Description></rdf:RDF></metadata><g>
<path d="M 697.07 169.96 C694.79,171.18 688.04,171.31 686.24,170.17 C685.25,169.54 685.04,153.63 685.24,93.94 L 685.50 18.50 L 691.73 18.20 C695.15,18.04 698.81,18.36 699.84,18.92 C700.88,19.47 704.19,23.21 707.19,27.21 C710.19,31.22 718.69,42.51 726.07,52.31 C733.46,62.10 741.45,72.90 743.82,76.31 C749.39,84.28 757.53,95.06 766.98,107.00 C774.27,116.20 778.41,121.97 778.48,123.00 C778.54,124.00 783.49,131.56 785.56,133.82 C786.73,135.10 789.22,138.58 791.09,141.55 C793.43,145.26 795.08,146.89 796.34,146.73 C798.10,146.51 798.17,143.92 798.10,82.75 L 798.03 19.00 L 810.11 19.00 L 809.67 93.75 L 809.23 168.50 L 803.18 168.80 L 797.13 169.09 L 792.82 163.42 C790.44,160.30 787.83,156.79 787.00,155.62 C786.17,154.46 785.15,153.34 784.71,153.15 C783.59,152.66 710.11,55.17 704.24,46.39 C702.99,44.52 701.30,43.00 700.49,43.00 C699.19,43.00 699.00,50.94 699.00,105.96 C699.00,167.19 698.95,168.96 697.07,169.96 ZM 312.71 170.20 C310.69,171.48 303.32,171.09 302.12,169.64 C301.29,168.65 301.06,147.88 301.24,93.39 L 301.50 18.50 L 307.22 18.20 C310.37,18.04 313.87,18.39 314.99,19.00 C316.93,20.03 320.77,24.71 350.71,62.50 C357.68,71.30 367.69,83.84 372.94,90.37 C392.45,114.61 411.19,138.76 410.85,139.23 C410.75,139.38 411.87,141.41 413.34,143.75 C416.06,148.06 417.35,148.85 418.53,146.94 C418.89,146.36 419.14,117.34 419.07,82.44 L 418.96 19.00 L 430.84 19.00 L 430.50 168.50 L 424.37 168.79 L 418.24 169.09 L 414.53 164.04 C412.49,161.26 410.07,158.43 409.16,157.74 C407.32,156.37 391.19,136.44 381.00,122.95 C373.65,113.23 370.07,108.65 350.96,84.57 C343.51,75.18 333.38,62.37 328.46,56.11 C323.53,49.84 318.79,43.81 317.91,42.70 C317.04,41.59 315.84,40.98 315.24,41.35 C314.48,41.82 314.12,61.21 314.04,105.72 C313.96,154.51 313.65,169.61 312.71,170.20 ZM 577.91 169.47 C570.32,171.51 566.37,171.97 557.50,171.87 C545.94,171.74 542.14,171.25 532.76,168.63 C521.36,165.45 503.72,155.22 503.24,151.50 C503.10,150.39 504.50,147.73 506.40,145.50 L 509.82 141.50 L 512.16 143.65 C515.67,146.88 522.08,150.45 532.50,154.98 C543.30,159.67 568.51,160.31 579.08,156.17 C585.95,153.48 592.35,148.13 595.28,142.64 C598.52,136.58 598.47,123.08 595.19,117.80 C592.77,113.90 584.23,107.00 581.82,107.00 C581.04,107.00 579.97,106.59 579.45,106.09 C578.40,105.09 567.12,101.99 554.00,99.09 C524.05,92.48 512.96,84.85 507.98,67.41 C505.39,58.39 505.48,55.06 508.54,45.88 C513.68,30.46 526.56,20.84 544.86,18.76 C554.71,17.65 575.83,18.43 577.37,19.97 C577.94,20.54 580.09,21.00 582.17,21.00 C584.24,21.00 587.63,21.74 589.72,22.64 C591.80,23.54 594.62,24.75 596.00,25.33 C599.88,26.96 607.00,31.42 607.00,32.22 C607.00,33.79 600.53,42.00 599.29,42.00 C598.56,42.00 596.28,40.95 594.23,39.66 C589.51,36.69 578.89,32.45 572.45,30.95 C569.73,30.31 563.22,29.74 558.00,29.67 C536.83,29.40 522.53,38.99 520.42,54.87 C519.47,62.04 521.81,67.76 527.94,73.22 C534.99,79.50 541.94,82.40 557.28,85.47 C568.29,87.68 580.98,90.95 584.50,92.49 C599.48,99.04 606.16,105.60 610.13,117.65 C612.35,124.38 612.49,130.17 610.63,139.07 C607.40,154.49 596.69,164.44 577.91,169.47 ZM 31.77 140.75 L 31.50 168.50 L 26.25 168.80 C23.36,168.97 20.99,168.97 20.98,168.80 C20.89,167.43 20.82,111.66 20.90,105.25 L 21.00 97.00 L 59.00 97.00 C82.46,97.00 97.00,96.63 97.00,96.05 C97.00,95.52 98.69,94.79 100.75,94.43 C105.04,93.68 112.30,89.39 116.22,85.29 C123.26,77.94 125.96,62.64 122.13,51.76 C118.68,41.94 112.77,35.98 103.42,32.89 C100.60,31.96 88.27,31.44 59.50,31.05 L 19.50 30.50 L 19.20 24.78 C18.92,19.46 19.07,19.02 21.32,18.46 C22.64,18.12 41.00,18.05 62.11,18.29 C103.46,18.77 104.34,18.87 115.38,24.47 C122.76,28.22 131.17,37.33 134.24,44.91 C136.19,49.72 136.50,52.31 136.50,63.52 C136.50,76.17 136.41,76.74 133.29,83.02 C126.46,96.82 115.28,105.40 100.92,107.87 C97.01,108.54 82.07,109.00 64.17,109.00 C34.67,109.00 34.00,109.04 34.00,111.00 C34.00,112.10 33.56,113.00 33.02,113.00 C32.40,113.00 31.93,123.39 31.77,140.75 ZM 219.50 168.23 C218.04,169.31 208.22,169.16 207.53,168.05 C207.21,167.54 207.15,144.70 207.40,117.30 C207.65,89.91 207.88,56.59 207.93,43.25 L 208.00 19.00 L 219.00 19.00 L 219.00 24.00 C219.00,26.75 219.34,29.00 219.75,29.00 C220.93,29.00 220.68,167.37 219.50,168.23 Z" fill="rgb(9,18,48)"></path>
<path d="M 766.98 107.00 C757.53,95.07 749.41,84.30 743.84,76.33 C749.38,84.26 757.51,95.02 766.99,106.96 C771.12,112.16 775.17,117.39 776.00,118.57 C783.82,129.76 796.10,144.88 796.51,143.82 C796.78,143.09 797.11,114.60 797.25,80.50 L 797.50 18.50 L 811.50 18.50 L 811.76 93.39 C811.94,147.88 811.71,168.65 810.88,169.64 C809.14,171.74 798.37,171.45 796.15,169.25 C795.17,168.29 791.28,163.23 787.51,158.00 C783.73,152.77 770.71,135.32 758.57,119.20 L 756.24 116.10 C771.49,136.26 784.25,152.95 784.71,153.15 C785.15,153.34 786.17,154.46 787.00,155.62 C787.83,156.79 790.44,160.30 792.82,163.42 L 797.13 169.09 L 803.18 168.80 L 809.23 168.50 L 809.67 93.75 L 810.11 19.00 L 798.03 19.00 L 798.10 82.75 C798.17,143.92 798.10,146.51 796.34,146.73 C795.08,146.89 793.43,145.26 791.09,141.55 C789.22,138.58 786.73,135.10 785.56,133.82 C783.49,131.56 778.54,124.00 778.48,123.00 C778.41,121.97 774.27,116.20 766.98,107.00 ZM 431.49 170.01 C429.15,172.60 420.95,172.09 417.62,169.16 C416.59,168.25 413.01,163.90 409.68,159.50 C407.32,156.40 403.47,151.47 399.85,146.91 C404.62,152.76 408.33,157.13 409.16,157.74 C410.07,158.43 412.49,161.26 414.53,164.04 L 418.24 169.09 L 424.37 168.79 L 430.50 168.50 L 430.84 19.00 L 418.96 19.00 L 419.07 82.44 C419.14,117.34 418.89,146.36 418.53,146.94 C417.35,148.85 416.06,148.06 413.34,143.75 C411.87,141.41 410.75,139.38 410.85,139.23 C410.97,139.06 408.66,135.87 404.74,130.73 C410.42,137.93 416.06,144.34 417.20,144.83 C417.63,145.01 418.10,116.66 418.24,81.83 L 418.50 18.50 L 432.50 18.50 L 432.76 93.41 C432.98,159.37 432.83,168.53 431.49,170.01 ZM 31.77 140.75 C31.93,123.39 32.40,113.00 33.02,113.00 C33.56,113.00 34.00,112.10 34.00,111.00 L 34.00 138.88 C34.00,161.59 33.70,168.99 32.75,169.74 C30.97,171.14 26.01,171.79 22.50,171.08 L 19.50 170.48 L 19.50 96.50 L 59.00 95.94 C78.17,95.67 93.80,95.16 99.75,94.64 C98.17,95.03 97.00,95.61 97.00,96.05 C97.00,96.63 82.46,97.00 59.00,97.00 L 21.00 97.00 L 20.90 105.25 C20.82,111.66 20.89,167.43 20.98,168.80 C20.99,168.97 23.36,168.97 26.25,168.80 L 31.50 168.50 ZM 218.74 171.18 C216.99,172.29 209.22,171.88 207.46,170.59 C206.17,169.64 206.01,159.64 206.24,94.00 L 206.50 18.50 L 220.49 18.50 L 220.38 51.36 C220.26,37.97 220.05,29.00 219.75,29.00 C219.34,29.00 219.00,26.75 219.00,24.00 L 219.00 19.00 L 208.00 19.00 L 207.93 43.25 C207.88,56.59 207.65,89.91 207.40,117.30 C207.15,144.70 207.21,167.54 207.53,168.05 C208.19,169.11 217.20,169.30 219.26,168.37 C219.11,170.20 218.94,171.06 218.74,171.18 ZM 586.26 21.55 C584.79,21.21 583.28,21.00 582.17,21.00 C580.09,21.00 577.94,20.54 577.37,19.97 C575.83,18.43 554.71,17.65 544.86,18.76 C537.96,19.55 531.84,21.40 526.60,24.23 C531.73,21.43 537.70,19.58 544.34,18.79 C556.58,17.35 578.48,18.60 585.12,21.12 C585.49,21.27 585.88,21.41 586.26,21.55 ZM 592.50 23.76 C596.61,24.97 607.00,31.02 607.00,32.21 C607.00,32.25 607.00,32.30 606.99,32.35 C606.99,32.30 607.00,32.26 607.00,32.22 C607.00,31.42 599.88,26.96 596.00,25.33 C595.05,24.93 593.40,24.22 591.78,23.53 C592.07,23.63 592.32,23.70 592.50,23.76 ZM 704.24 46.39 C705.97,48.98 713.60,59.31 723.52,72.59 C710.94,55.81 706.23,49.37 704.24,46.39 ZM 122.81 71.99 C124.32,65.28 124.23,57.73 122.13,51.76 C124.27,57.84 124.37,65.31 122.81,71.99 ZM 395.91 119.31 C389.32,110.87 381.20,100.63 372.94,90.37 C382.01,101.63 389.50,111.07 395.91,119.31 ZM 385.57 128.92 C383.83,126.69 382.24,124.61 381.00,122.97 C376.56,117.09 373.54,113.13 367.54,105.52 C373.49,113.08 376.56,117.07 381.00,122.95 C382.43,124.84 383.97,126.85 385.57,128.92 ZM 111.14 89.51 C112.26,88.72 113.34,87.90 114.32,87.08 C113.34,87.91 112.26,88.73 111.14,89.51 Z" fill="rgb(89,94,114)"></path>
<path d="M 0.00 91.50 L 0.00 0.00 L 420.00 0.00 L 840.00 0.00 L 840.00 91.50 L 840.00 183.00 L 420.00 183.00 L 0.00 183.00 L 0.00 91.50 ZM 32.75 169.74 C33.70,168.99 34.00,161.59 34.00,138.88 L 34.00 109.00 L 64.17 109.00 C82.07,109.00 97.01,108.54 100.92,107.87 C115.28,105.40 126.46,96.82 133.29,83.02 C136.41,76.74 136.50,76.17 136.50,63.52 C136.50,52.31 136.19,49.72 134.24,44.91 C131.17,37.33 122.76,28.22 115.38,24.47 C104.34,18.87 103.46,18.77 62.11,18.29 C41.00,18.05 22.64,18.12 21.32,18.46 C19.07,19.02 18.92,19.46 19.20,24.78 L 19.50 30.50 L 59.50 31.05 C88.27,31.44 100.60,31.96 103.42,32.89 C112.77,35.98 118.68,41.94 122.13,51.76 C125.83,62.29 123.30,77.75 116.70,84.84 C113.31,88.49 106.15,93.15 102.13,94.33 C100.01,94.94 82.06,95.62 59.00,95.94 L 19.50 96.50 L 19.50 133.49 L 19.50 170.48 L 22.50 171.08 C26.01,171.79 30.97,171.14 32.75,169.74 ZM 218.74 171.18 C219.69,170.58 220.03,153.41 220.23,94.45 L 220.49 18.50 L 213.50 18.50 L 206.50 18.50 L 206.24 94.00 C206.01,159.64 206.17,169.64 207.46,170.59 C209.22,171.88 216.99,172.29 218.74,171.18 ZM 431.49 170.01 C432.83,168.53 432.98,159.37 432.76,93.41 L 432.50 18.50 L 425.50 18.50 L 418.50 18.50 L 418.24 81.83 C418.10,116.66 417.63,145.01 417.20,144.83 C415.89,144.27 408.67,135.92 402.23,127.50 C394.52,117.41 385.16,105.55 372.94,90.37 C367.69,83.84 357.68,71.30 350.71,62.50 C320.77,24.71 316.93,20.03 314.99,19.00 C313.87,18.39 310.37,18.04 307.22,18.20 L 301.50 18.50 L 301.24 93.39 C301.06,147.88 301.29,168.65 302.12,169.64 C303.32,171.09 310.69,171.48 312.71,170.20 C313.65,169.61 313.96,154.51 314.04,105.72 C314.12,61.21 314.48,41.82 315.24,41.35 C315.84,40.98 317.04,41.59 317.91,42.70 C318.79,43.81 323.53,49.84 328.46,56.11 C333.38,62.37 343.51,75.18 350.96,84.57 C370.20,108.82 373.69,113.27 381.00,122.97 C384.58,127.71 391.12,136.07 395.55,141.54 C399.98,147.02 406.34,155.10 409.68,159.50 C413.01,163.90 416.59,168.25 417.62,169.16 C420.95,172.09 429.15,172.60 431.49,170.01 ZM 577.91 169.47 C596.69,164.44 607.40,154.49 610.63,139.07 C612.49,130.17 612.35,124.38 610.13,117.65 C606.16,105.60 599.48,99.04 584.50,92.49 C580.98,90.95 568.29,87.68 557.28,85.47 C541.94,82.40 534.99,79.50 527.94,73.22 C521.81,67.76 519.47,62.04 520.42,54.87 C522.53,38.99 536.83,29.40 558.00,29.67 C563.22,29.74 569.73,30.31 572.45,30.95 C578.89,32.45 589.51,36.69 594.23,39.66 C596.28,40.95 598.56,42.00 599.29,42.00 C600.54,42.00 607.00,33.79 607.00,32.21 C607.00,31.02 596.61,24.97 592.50,23.76 C591.40,23.43 588.08,22.25 585.12,21.12 C578.48,18.60 556.58,17.35 544.34,18.79 C526.51,20.90 513.61,30.66 508.54,45.88 C505.48,55.06 505.39,58.39 507.98,67.41 C512.96,84.85 524.05,92.48 554.00,99.09 C567.12,101.99 578.40,105.09 579.45,106.09 C579.97,106.59 581.04,107.00 581.82,107.00 C584.23,107.00 592.77,113.90 595.19,117.80 C598.47,123.08 598.52,136.58 595.28,142.64 C592.35,148.13 585.95,153.48 579.08,156.17 C568.51,160.31 543.30,159.67 532.50,154.98 C522.08,150.45 515.67,146.88 512.16,143.65 L 509.82 141.50 L 506.40 145.50 C504.50,147.73 503.10,150.39 503.24,151.50 C503.72,155.22 521.36,165.45 532.76,168.63 C542.14,171.25 545.94,171.74 557.50,171.87 C566.37,171.97 570.32,171.51 577.91,169.47 ZM 697.07 169.96 C698.95,168.96 699.00,167.19 699.00,105.96 C699.00,50.94 699.19,43.00 700.49,43.00 C701.30,43.00 702.99,44.52 704.24,46.39 C707.50,51.28 718.07,65.43 758.57,119.20 C770.71,135.32 783.73,152.77 787.51,158.00 C791.28,163.23 795.17,168.29 796.15,169.25 C798.37,171.45 809.14,171.74 810.88,169.64 C811.71,168.65 811.94,147.88 811.76,93.39 L 811.50 18.50 L 804.50 18.50 L 797.50 18.50 L 797.25 80.50 C797.11,114.60 796.78,143.09 796.51,143.82 C796.10,144.88 783.82,129.76 776.00,118.57 C775.17,117.39 771.12,112.16 766.99,106.96 C757.50,95.01 749.36,84.24 743.82,76.31 C741.45,72.90 733.46,62.10 726.07,52.31 C718.69,42.51 710.19,31.22 707.19,27.21 C704.19,23.21 700.88,19.47 699.84,18.92 C698.81,18.36 695.15,18.04 691.73,18.20 L 685.50 18.50 L 685.24 93.94 C685.04,153.63 685.25,169.54 686.24,170.17 C688.04,171.31 694.79,171.18 697.07,169.96 Z" fill="rgb(164,169,183)"></path>
<path d="M 0.00 91.50 L 0.00 0.00 L 420.00 0.00 L 840.00 0.00 L 840.00 91.50 L 840.00 183.00 L 420.00 183.00 L 0.00 183.00 L 0.00 91.50 ZM 32.75 169.74 C33.70,168.99 34.00,161.59 34.00,138.88 L 34.00 109.00 L 64.17 109.00 C82.07,109.00 97.01,108.54 100.92,107.87 C115.28,105.40 126.46,96.82 133.29,83.02 C136.41,76.74 136.50,76.17 136.50,63.52 C136.50,52.31 136.19,49.72 134.24,44.91 C131.17,37.33 122.76,28.22 115.38,24.47 C104.34,18.87 103.46,18.77 62.11,18.29 C41.00,18.05 22.64,18.12 21.32,18.46 C19.07,19.02 18.92,19.46 19.20,24.78 L 19.50 30.50 L 59.50 31.05 C88.27,31.44 100.60,31.96 103.42,32.89 C112.77,35.98 118.68,41.94 122.13,51.76 C125.83,62.29 123.30,77.75 116.70,84.84 C113.31,88.49 106.15,93.15 102.13,94.33 C100.01,94.94 82.06,95.62 59.00,95.94 L 19.50 96.50 L 19.50 133.49 L 19.50 170.48 L 22.50 171.08 C26.01,171.79 30.97,171.14 32.75,169.74 ZM 218.74 171.18 C219.69,170.58 220.03,153.41 220.23,94.45 L 220.49 18.50 L 213.50 18.50 L 206.50 18.50 L 206.24 94.00 C206.01,159.64 206.17,169.64 207.46,170.59 C209.22,171.88 216.99,172.29 218.74,171.18 ZM 431.49 170.01 C432.83,168.53 432.98,159.37 432.76,93.41 L 432.50 18.50 L 425.50 18.50 L 418.50 18.50 L 418.24 81.83 C418.10,116.66 417.63,145.01 417.20,144.83 C415.89,144.27 408.67,135.92 402.23,127.50 C394.52,117.41 385.16,105.55 372.94,90.37 C367.69,83.84 357.68,71.30 350.71,62.50 C320.77,24.71 316.93,20.03 314.99,19.00 C313.87,18.39 310.37,18.04 307.22,18.20 L 301.50 18.50 L 301.24 93.39 C301.06,147.88 301.29,168.65 302.12,169.64 C303.32,171.09 310.69,171.48 312.71,170.20 C313.65,169.61 313.96,154.51 314.04,105.72 C314.12,61.21 314.48,41.82 315.24,41.35 C315.84,40.98 317.04,41.59 317.91,42.70 C318.79,43.81 323.53,49.84 328.46,56.11 C333.38,62.37 343.51,75.18 350.96,84.57 C370.20,108.82 373.69,113.27 381.00,122.97 C384.58,127.71 391.12,136.07 395.55,141.54 C399.98,147.02 406.34,155.10 409.68,159.50 C413.01,163.90 416.59,168.25 417.62,169.16 C420.95,172.09 429.15,172.60 431.49,170.01 ZM 577.91 169.47 C596.69,164.44 607.40,154.49 610.63,139.07 C612.49,130.17 612.35,124.38 610.13,117.65 C606.16,105.60 599.48,99.04 584.50,92.49 C580.98,90.95 568.29,87.68 557.28,85.47 C541.94,82.40 534.99,79.50 527.94,73.22 C521.81,67.76 519.47,62.04 520.42,54.87 C522.53,38.99 536.83,29.40 558.00,29.67 C563.22,29.74 569.73,30.31 572.45,30.95 C578.89,32.45 589.51,36.69 594.23,39.66 C596.28,40.95 598.56,42.00 599.29,42.00 C600.54,42.00 607.00,33.79 607.00,32.21 C607.00,31.02 596.61,24.97 592.50,23.76 C591.40,23.43 588.03,22.23 585.01,21.08 C582.00,19.94 578.55,19.00 577.35,19.00 C576.15,19.00 575.02,18.58 574.83,18.06 C574.65,17.54 570.56,16.55 565.74,15.86 C558.75,14.85 555.52,14.85 549.78,15.83 C545.82,16.51 542.33,17.41 542.04,17.83 C541.74,18.25 539.47,19.19 537.00,19.91 C522.68,24.10 512.78,33.14 508.52,45.93 C505.48,55.06 505.40,58.40 507.98,67.41 C512.96,84.85 524.05,92.48 554.00,99.09 C567.12,101.99 578.40,105.09 579.45,106.09 C579.97,106.59 581.04,107.00 581.82,107.00 C584.23,107.00 592.77,113.90 595.19,117.80 C598.47,123.08 598.52,136.58 595.28,142.64 C592.35,148.13 585.95,153.48 579.08,156.17 C568.51,160.31 543.30,159.67 532.50,154.98 C522.08,150.45 515.67,146.88 512.16,143.65 L 509.82 141.50 L 506.40 145.50 C504.50,147.73 503.10,150.39 503.24,151.50 C503.72,155.22 521.36,165.45 532.76,168.63 C542.14,171.25 545.94,171.74 557.50,171.87 C566.37,171.97 570.32,171.51 577.91,169.47 ZM 697.07 169.96 C698.95,168.96 699.00,167.19 699.00,105.96 C699.00,50.94 699.19,43.00 700.49,43.00 C701.30,43.00 702.99,44.52 704.24,46.39 C707.50,51.28 718.07,65.43 758.57,119.20 C770.71,135.32 783.73,152.77 787.51,158.00 C791.28,163.23 795.17,168.29 796.15,169.25 C798.37,171.45 809.14,171.74 810.88,169.64 C811.71,168.65 811.94,147.88 811.76,93.39 L 811.50 18.50 L 804.50 18.50 L 797.50 18.50 L 797.25 80.50 C797.11,114.60 796.78,143.09 796.51,143.82 C796.10,144.88 783.82,129.76 776.00,118.57 C775.17,117.39 771.12,112.16 766.99,106.96 C757.50,95.01 749.36,84.24 743.82,76.31 C741.45,72.90 733.46,62.10 726.07,52.31 C718.69,42.51 710.19,31.22 707.19,27.21 C704.19,23.21 700.88,19.47 699.84,18.92 C698.81,18.36 695.15,18.04 691.73,18.20 L 685.50 18.50 L 685.24 93.94 C685.04,153.63 685.25,169.54 686.24,170.17 C688.04,171.31 694.79,171.18 697.07,169.96 Z" fill="rgb(252,252,252)"></path>
</g></svg>